<?xml version="1.0" encoding="UTF-8" standalone="no"?>
<svg
   width="400pt"
   height="400pt"
   viewBox="0 0 400 400"
   version="1.1"
   id="svg2047"
   sodipodi:docname="feature_03.svg"
   inkscape:version="1.1 (1:1.1+202105261517+ce6663b3b7)"
   xmlns:inkscape="http://www.inkscape.org/namespaces/inkscape"
   xmlns:sodipodi="http://sodipodi.sourceforge.net/DTD/sodipodi-0.dtd"
   xmlns="http://www.w3.org/2000/svg"
   xmlns:svg="http://www.w3.org/2000/svg">
  <defs
     id="defs2051" />
  <sodipodi:namedview
     id="namedview2049"
     pagecolor="#ffffff"
     bordercolor="#666666"
     borderopacity="1.0"
     inkscape:pageshadow="2"
     inkscape:pageopacity="0.0"
     inkscape:pagecheckerboard="0"
     inkscape:document-units="pt"
     showgrid="false"
     inkscape:zoom="1.1309289"
     inkscape:cx="189.22498"
     inkscape:cy="248.0262"
     inkscape:window-width="1920"
     inkscape:window-height="1014"
     inkscape:window-x="0"
     inkscape:window-y="34"
     inkscape:window-maximized="1"
     inkscape:current-layer="surface6" />
  <g
     id="surface6">
    <path
       style="fill-rule:nonzero;fill:rgb(0%, 0%, 1%);fill-opacity:1;stroke-width:2.5;stroke-linecap:square;stroke-linejoin:miter;stroke:rgb(0%, 0%, 1%);stroke-opacity:1;stroke-miterlimit:3.25;stroke-dasharray:none"
       d="M 0 197 L 57.144531 197 L 57.144531 139.855469 L 0 139.855469 Z M 0 197 "
       transform="matrix(1,0,0,1,0,203)"
       id="path1948" />
    <path
       style="fill-rule:nonzero;fill:rgb(0%, 0%, 2%);fill-opacity:1;stroke-width:2.5;stroke-linecap:square;stroke-linejoin:miter;stroke:rgb(0%, 0%, 2%);stroke-opacity:1;stroke-miterlimit:3.25;stroke-dasharray:none"
       d="M 57.144531 197 L 114.285156 197 L 114.285156 139.855469 L 57.144531 139.855469 Z M 57.144531 197 "
       transform="matrix(1,0,0,1,0,203)"
       id="path1950" />
    <path
       style="fill-rule:nonzero;fill:rgb(0%, 0%, 4%);fill-opacity:1;stroke-width:2.5;stroke-linecap:square;stroke-linejoin:miter;stroke:rgb(0%, 0%, 4%);stroke-opacity:1;stroke-miterlimit:3.25;stroke-dasharray:none"
       d="M 114.285156 197 L 171.429688 197 L 171.429688 139.855469 L 114.285156 139.855469 Z M 114.285156 197 "
       transform="matrix(1,0,0,1,0,203)"
       id="path1952" />
    <path
       style="fill-rule:nonzero;fill:rgb(0%, 0%, 5%);fill-opacity:1;stroke-width:2.5;stroke-linecap:square;stroke-linejoin:miter;stroke:rgb(0%, 0%, 5%);stroke-opacity:1;stroke-miterlimit:3.25;stroke-dasharray:none"
       d="M 171.429688 197 L 228.570312 197 L 228.570312 139.855469 L 171.429688 139.855469 Z M 171.429688 197 "
       transform="matrix(1,0,0,1,0,203)"
       id="path1954" />
    <path
       style="fill-rule:nonzero;fill:rgb(1%, 0%, 6%);fill-opacity:1;stroke-width:2.5;stroke-linecap:square;stroke-linejoin:miter;stroke:rgb(1%, 0%, 6%);stroke-opacity:1;stroke-miterlimit:3.25;stroke-dasharray:none"
       d="M 228.570312 197 L 285.714844 197 L 285.714844 139.855469 L 228.570312 139.855469 Z M 228.570312 197 "
       transform="matrix(1,0,0,1,0,203)"
       id="path1956" />
    <path
       style="fill-rule:nonzero;fill:rgb(1%, 1%, 6%);fill-opacity:1;stroke-width:2.5;stroke-linecap:square;stroke-linejoin:miter;stroke:rgb(1%, 1%, 6%);stroke-opacity:1;stroke-miterlimit:3.25;stroke-dasharray:none"
       d="M 285.714844 197 L 342.855469 197 L 342.855469 139.855469 L 285.714844 139.855469 Z M 285.714844 197 "
       transform="matrix(1,0,0,1,0,203)"
       id="path1958" />
    <path
       style="fill-rule:nonzero;fill:rgb(1%, 1%, 7%);fill-opacity:1;stroke-width:2.5;stroke-linecap:square;stroke-linejoin:miter;stroke:rgb(1%, 1%, 7%);stroke-opacity:1;stroke-miterlimit:3.25;stroke-dasharray:none"
       d="M 342.855469 197 L 400 197 L 400 139.855469 L 342.855469 139.855469 Z M 342.855469 197 "
       transform="matrix(1,0,0,1,0,203)"
       id="path1960" />
    <path
       style="fill-rule:nonzero;fill:rgb(4%, 3%, 15%);fill-opacity:1;stroke-width:2.5;stroke-linecap:square;stroke-linejoin:miter;stroke:rgb(4%, 3%, 15%);stroke-opacity:1;stroke-miterlimit:3.25;stroke-dasharray:none"
       d="M 0 139.855469 L 57.144531 139.855469 L 57.144531 82.714844 L 0 82.714844 Z M 0 139.855469 "
       transform="matrix(1,0,0,1,0,203)"
       id="path1962" />
    <path
       style="fill-rule:nonzero;fill:rgb(10%, 6%, 27%);fill-opacity:1;stroke-width:2.5;stroke-linecap:square;stroke-linejoin:miter;stroke:rgb(10%, 6%, 27%);stroke-opacity:1;stroke-miterlimit:3.25;stroke-dasharray:none"
       d="M 57.144531 139.855469 L 114.285156 139.855469 L 114.285156 82.714844 L 57.144531 82.714844 Z M 57.144531 139.855469 "
       transform="matrix(1,0,0,1,0,203)"
       id="path1964" />
    <path
       style="fill-rule:nonzero;fill:rgb(15%, 6%, 34%);fill-opacity:1;stroke-width:2.5;stroke-linecap:square;stroke-linejoin:miter;stroke:rgb(15%, 6%, 34%);stroke-opacity:1;stroke-miterlimit:3.25;stroke-dasharray:none"
       d="M 114.285156 139.855469 L 171.429688 139.855469 L 171.429688 82.714844 L 114.285156 82.714844 Z M 114.285156 139.855469 "
       transform="matrix(1,0,0,1,0,203)"
       id="path1966" />
    <path
       style="fill-rule:nonzero;fill:rgb(17%, 6%, 38%);fill-opacity:1;stroke-width:2.5;stroke-linecap:square;stroke-linejoin:miter;stroke:rgb(17%, 6%, 38%);stroke-opacity:1;stroke-miterlimit:3.25;stroke-dasharray:none"
       d="M 171.429688 139.855469 L 228.570312 139.855469 L 228.570312 82.714844 L 171.429688 82.714844 Z M 171.429688 139.855469 "
       transform="matrix(1,0,0,1,0,203)"
       id="path1968" />
    <path
       style="fill-rule:nonzero;fill:rgb(18%, 6%, 39%);fill-opacity:1;stroke-width:2.5;stroke-linecap:square;stroke-linejoin:miter;stroke:rgb(18%, 6%, 39%);stroke-opacity:1;stroke-miterlimit:3.25;stroke-dasharray:none"
       d="M 228.570312 139.855469 L 285.714844 139.855469 L 285.714844 82.714844 L 228.570312 82.714844 Z M 228.570312 139.855469 "
       transform="matrix(1,0,0,1,0,203)"
       id="path1970" />
    <path
       style="fill-rule:nonzero;fill:rgb(18%, 6%, 39%);fill-opacity:1;stroke-width:2.5;stroke-linecap:square;stroke-linejoin:miter;stroke:rgb(18%, 6%, 39%);stroke-opacity:1;stroke-miterlimit:3.25;stroke-dasharray:none"
       d="M 285.714844 139.855469 L 342.855469 139.855469 L 342.855469 82.714844 L 285.714844 82.714844 Z M 285.714844 139.855469 "
       transform="matrix(1,0,0,1,0,203)"
       id="path1972" />
    <path
       style="fill-rule:nonzero;fill:rgb(19%, 6%, 39%);fill-opacity:1;stroke-width:2.5;stroke-linecap:square;stroke-linejoin:miter;stroke:rgb(19%, 6%, 39%);stroke-opacity:1;stroke-miterlimit:3.25;stroke-dasharray:none"
       d="M 342.855469 139.855469 L 400 139.855469 L 400 82.714844 L 342.855469 82.714844 Z M 342.855469 139.855469 "
       transform="matrix(1,0,0,1,0,203)"
       id="path1974" />
    <path
       style="fill-rule:nonzero;fill:rgb(33%, 7%, 49%);fill-opacity:1;stroke-width:2.5;stroke-linecap:square;stroke-linejoin:miter;stroke:rgb(33%, 7%, 49%);stroke-opacity:1;stroke-miterlimit:3.25;stroke-dasharray:none"
       d="M 0 82.714844 L 57.144531 82.714844 L 57.144531 25.570312 L 0 25.570312 Z M 0 82.714844 "
       transform="matrix(1,0,0,1,0,203)"
       id="path1976" />
    <path
       style="fill-rule:nonzero;fill:rgb(45%, 12%, 50%);fill-opacity:1;stroke-width:2.5;stroke-linecap:square;stroke-linejoin:miter;stroke:rgb(45%, 12%, 50%);stroke-opacity:1;stroke-miterlimit:3.25;stroke-dasharray:none"
       d="M 57.144531 82.714844 L 114.285156 82.714844 L 114.285156 25.570312 L 57.144531 25.570312 Z M 57.144531 82.714844 "
       transform="matrix(1,0,0,1,0,203)"
       id="path1978" />
    <path
       style="fill-rule:nonzero;fill:rgb(47%, 13%, 50%);fill-opacity:1;stroke-width:2.5;stroke-linecap:square;stroke-linejoin:miter;stroke:rgb(47%, 13%, 50%);stroke-opacity:1;stroke-miterlimit:3.25;stroke-dasharray:none"
       d="M 114.285156 82.714844 L 171.429688 82.714844 L 171.429688 25.570312 L 114.285156 25.570312 Z M 114.285156 82.714844 "
       transform="matrix(1,0,0,1,0,203)"
       id="path1980" />
    <path
       style="fill-rule:nonzero;fill:rgb(45%, 12%, 50%);fill-opacity:1;stroke-width:2.5;stroke-linecap:square;stroke-linejoin:miter;stroke:rgb(45%, 12%, 50%);stroke-opacity:1;stroke-miterlimit:3.25;stroke-dasharray:none"
       d="M 171.429688 82.714844 L 228.570312 82.714844 L 228.570312 25.570312 L 171.429688 25.570312 Z M 171.429688 82.714844 "
       transform="matrix(1,0,0,1,0,203)"
       id="path1982" />
    <path
       style="fill-rule:nonzero;fill:rgb(43%, 11%, 50%);fill-opacity:1;stroke-width:2.5;stroke-linecap:square;stroke-linejoin:miter;stroke:rgb(43%, 11%, 50%);stroke-opacity:1;stroke-miterlimit:3.25;stroke-dasharray:none"
       d="M 228.570312 82.714844 L 285.714844 82.714844 L 285.714844 25.570312 L 228.570312 25.570312 Z M 228.570312 82.714844 "
       transform="matrix(1,0,0,1,0,203)"
       id="path1984" />
    <path
       style="fill-rule:nonzero;fill:rgb(41%, 10%, 50%);fill-opacity:1;stroke-width:2.5;stroke-linecap:square;stroke-linejoin:miter;stroke:rgb(41%, 10%, 50%);stroke-opacity:1;stroke-miterlimit:3.25;stroke-dasharray:none"
       d="M 285.714844 82.714844 L 342.855469 82.714844 L 342.855469 25.570312 L 285.714844 25.570312 Z M 285.714844 82.714844 "
       transform="matrix(1,0,0,1,0,203)"
       id="path1986" />
    <path
       style="fill-rule:nonzero;fill:rgb(41%, 10%, 50%);fill-opacity:1;stroke-width:2.5;stroke-linecap:square;stroke-linejoin:miter;stroke:rgb(41%, 10%, 50%);stroke-opacity:1;stroke-miterlimit:3.25;stroke-dasharray:none"
       d="M 342.855469 82.714844 L 400 82.714844 L 400 25.570312 L 342.855469 25.570312 Z M 342.855469 82.714844 "
       transform="matrix(1,0,0,1,0,203)"
       id="path1988" />
    <path
       style="fill-rule:nonzero;fill:rgb(76%, 23%, 45%);fill-opacity:1;stroke-width:2.5;stroke-linecap:square;stroke-linejoin:miter;stroke:rgb(76%, 23%, 45%);stroke-opacity:1;stroke-miterlimit:3.25;stroke-dasharray:none"
       d="M 0 25.570312 L 57.144531 25.570312 L 57.144531 -31.570312 L 0 -31.570312 Z M 0 25.570312 "
       transform="matrix(1,0,0,1,0,203)"
       id="path1990" />
    <path
       style="fill-rule:nonzero;fill:rgb(81%, 25%, 43%);fill-opacity:1;stroke-width:2.5;stroke-linecap:square;stroke-linejoin:miter;stroke:rgb(81%, 25%, 43%);stroke-opacity:1;stroke-miterlimit:3.25;stroke-dasharray:none"
       d="M 57.144531 25.570312 L 114.285156 25.570312 L 114.285156 -31.570312 L 57.144531 -31.570312 Z M 57.144531 25.570312 "
       transform="matrix(1,0,0,1,0,203)"
       id="path1992" />
    <path
       style="fill-rule:nonzero;fill:rgb(72%, 21%, 47%);fill-opacity:1;stroke-width:2.5;stroke-linecap:square;stroke-linejoin:miter;stroke:rgb(72%, 21%, 47%);stroke-opacity:1;stroke-miterlimit:3.25;stroke-dasharray:none"
       d="M 114.285156 25.570312 L 171.429688 25.570312 L 171.429688 -31.570312 L 114.285156 -31.570312 Z M 114.285156 25.570312 "
       transform="matrix(1,0,0,1,0,203)"
       id="path1994" />
    <path
       style="fill-rule:nonzero;fill:rgb(61%, 18%, 49%);fill-opacity:1;stroke-width:2.5;stroke-linecap:square;stroke-linejoin:miter;stroke:rgb(61%, 18%, 49%);stroke-opacity:1;stroke-miterlimit:3.25;stroke-dasharray:none"
       d="M 171.429688 25.570312 L 228.570312 25.570312 L 228.570312 -31.570312 L 171.429688 -31.570312 Z M 171.429688 25.570312 "
       transform="matrix(1,0,0,1,0,203)"
       id="path1996" />
    <path
       style="fill-rule:nonzero;fill:rgb(52%, 15%, 50%);fill-opacity:1;stroke-width:2.5;stroke-linecap:square;stroke-linejoin:miter;stroke:rgb(52%, 15%, 50%);stroke-opacity:1;stroke-miterlimit:3.25;stroke-dasharray:none"
       d="M 228.570312 25.570312 L 285.714844 25.570312 L 285.714844 -31.570312 L 228.570312 -31.570312 Z M 228.570312 25.570312 "
       transform="matrix(1,0,0,1,0,203)"
       id="path1998" />
    <path
       style="fill-rule:nonzero;fill:rgb(48%, 13%, 50%);fill-opacity:1;stroke-width:2.5;stroke-linecap:square;stroke-linejoin:miter;stroke:rgb(48%, 13%, 50%);stroke-opacity:1;stroke-miterlimit:3.25;stroke-dasharray:none"
       d="M 285.714844 25.570312 L 342.855469 25.570312 L 342.855469 -31.570312 L 285.714844 -31.570312 Z M 285.714844 25.570312 "
       transform="matrix(1,0,0,1,0,203)"
       id="path2000" />
    <path
       style="fill-rule:nonzero;fill:rgb(46%, 12%, 50%);fill-opacity:1;stroke-width:2.5;stroke-linecap:square;stroke-linejoin:miter;stroke:rgb(46%, 12%, 50%);stroke-opacity:1;stroke-miterlimit:3.25;stroke-dasharray:none"
       d="M 342.855469 25.570312 L 400 25.570312 L 400 -31.570312 L 342.855469 -31.570312 Z M 342.855469 25.570312 "
       transform="matrix(1,0,0,1,0,203)"
       id="path2002" />
    <path
       style="fill-rule:nonzero;fill:rgb(99%, 57%, 39%);fill-opacity:1;stroke-width:2.5;stroke-linecap:square;stroke-linejoin:miter;stroke:rgb(99%, 57%, 39%);stroke-opacity:1;stroke-miterlimit:3.25;stroke-dasharray:none"
       d="M 0 -31.570312 L 57.144531 -31.570312 L 57.144531 -88.714844 L 0 -88.714844 Z M 0 -31.570312 "
       transform="matrix(1,0,0,1,0,203)"
       id="path2004" />
    <path
       style="fill-rule:nonzero;fill:rgb(97%, 45%, 36%);fill-opacity:1;stroke-width:2.5;stroke-linecap:square;stroke-linejoin:miter;stroke:rgb(97%, 45%, 36%);stroke-opacity:1;stroke-miterlimit:3.25;stroke-dasharray:none"
       d="M 57.144531 -31.570312 L 114.285156 -31.570312 L 114.285156 -88.714844 L 57.144531 -88.714844 Z M 57.144531 -31.570312 "
       transform="matrix(1,0,0,1,0,203)"
       id="path2006" />
    <path
       style="fill-rule:nonzero;fill:rgb(86%, 28%, 41%);fill-opacity:1;stroke-width:2.5;stroke-linecap:square;stroke-linejoin:miter;stroke:rgb(86%, 28%, 41%);stroke-opacity:1;stroke-miterlimit:3.25;stroke-dasharray:none"
       d="M 114.285156 -31.570312 L 171.429688 -31.570312 L 171.429688 -88.714844 L 114.285156 -88.714844 Z M 114.285156 -31.570312 "
       transform="matrix(1,0,0,1,0,203)"
       id="path2008" />
    <path
       style="fill-rule:nonzero;fill:rgb(67%, 19%, 48%);fill-opacity:1;stroke-width:2.5;stroke-linecap:square;stroke-linejoin:miter;stroke:rgb(67%, 19%, 48%);stroke-opacity:1;stroke-miterlimit:3.25;stroke-dasharray:none"
       d="M 171.429688 -31.570312 L 228.570312 -31.570312 L 228.570312 -88.714844 L 171.429688 -88.714844 Z M 171.429688 -31.570312 "
       transform="matrix(1,0,0,1,0,203)"
       id="path2010" />
    <path
       style="fill-rule:nonzero;fill:rgb(54%, 16%, 50%);fill-opacity:1;stroke-width:2.5;stroke-linecap:square;stroke-linejoin:miter;stroke:rgb(54%, 16%, 50%);stroke-opacity:1;stroke-miterlimit:3.25;stroke-dasharray:none"
       d="M 228.570312 -31.570312 L 285.714844 -31.570312 L 285.714844 -88.714844 L 228.570312 -88.714844 Z M 228.570312 -31.570312 "
       transform="matrix(1,0,0,1,0,203)"
       id="path2012" />
    <path
       style="fill-rule:nonzero;fill:rgb(49%, 13%, 50%);fill-opacity:1;stroke-width:2.5;stroke-linecap:square;stroke-linejoin:miter;stroke:rgb(49%, 13%, 50%);stroke-opacity:1;stroke-miterlimit:3.25;stroke-dasharray:none"
       d="M 285.714844 -31.570312 L 342.855469 -31.570312 L 342.855469 -88.714844 L 285.714844 -88.714844 Z M 285.714844 -31.570312 "
       transform="matrix(1,0,0,1,0,203)"
       id="path2014" />
    <path
       style="fill-rule:nonzero;fill:rgb(46%, 12%, 50%);fill-opacity:1;stroke-width:2.5;stroke-linecap:square;stroke-linejoin:miter;stroke:rgb(46%, 12%, 50%);stroke-opacity:1;stroke-miterlimit:3.25;stroke-dasharray:none"
       d="M 342.855469 -31.570312 L 400 -31.570312 L 400 -88.714844 L 342.855469 -88.714844 Z M 342.855469 -31.570312 "
       transform="matrix(1,0,0,1,0,203)"
       id="path2016" />
    <path
       style="fill-rule:nonzero;fill:rgb(99%, 85%, 60%);fill-opacity:1;stroke-width:2.5;stroke-linecap:square;stroke-linejoin:miter;stroke:rgb(99%, 85%, 60%);stroke-opacity:1;stroke-miterlimit:3.25;stroke-dasharray:none"
       d="M 0 -88.714844 L 57.144531 -88.714844 L 57.144531 -145.855469 L 0 -145.855469 Z M 0 -88.714844 "
       transform="matrix(1,0,0,1,0,203)"
       id="path2018" />
    <path
       style="fill-rule:nonzero;fill:rgb(99%, 59%, 40%);fill-opacity:1;stroke-width:2.5;stroke-linecap:square;stroke-linejoin:miter;stroke:rgb(99%, 59%, 40%);stroke-opacity:1;stroke-miterlimit:3.25;stroke-dasharray:none"
       d="M 57.144531 -88.714844 L 114.285156 -88.714844 L 114.285156 -145.855469 L 57.144531 -145.855469 Z M 57.144531 -88.714844 "
       transform="matrix(1,0,0,1,0,203)"
       id="path2020" />
    <path
       style="fill-rule:nonzero;fill:rgb(92%, 33%, 38%);fill-opacity:1;stroke-width:2.5;stroke-linecap:square;stroke-linejoin:miter;stroke:rgb(92%, 33%, 38%);stroke-opacity:1;stroke-miterlimit:3.25;stroke-dasharray:none"
       d="M 114.285156 -88.714844 L 171.429688 -88.714844 L 171.429688 -145.855469 L 114.285156 -145.855469 Z M 114.285156 -88.714844 "
       transform="matrix(1,0,0,1,0,203)"
       id="path2022" />
    <path
       style="fill-rule:nonzero;fill:rgb(69%, 20%, 48%);fill-opacity:1;stroke-width:2.5;stroke-linecap:square;stroke-linejoin:miter;stroke:rgb(69%, 20%, 48%);stroke-opacity:1;stroke-miterlimit:3.25;stroke-dasharray:none"
       d="M 171.429688 -88.714844 L 228.570312 -88.714844 L 228.570312 -145.855469 L 171.429688 -145.855469 Z M 171.429688 -88.714844 "
       transform="matrix(1,0,0,1,0,203)"
       id="path2024" />
    <path
       style="fill-rule:nonzero;fill:rgb(55%, 16%, 50%);fill-opacity:1;stroke-width:2.5;stroke-linecap:square;stroke-linejoin:miter;stroke:rgb(55%, 16%, 50%);stroke-opacity:1;stroke-miterlimit:3.25;stroke-dasharray:none"
       d="M 228.570312 -88.714844 L 285.714844 -88.714844 L 285.714844 -145.855469 L 228.570312 -145.855469 Z M 228.570312 -88.714844 "
       transform="matrix(1,0,0,1,0,203)"
       id="path2026" />
    <path
       style="fill-rule:nonzero;fill:rgb(49%, 13%, 50%);fill-opacity:1;stroke-width:2.5;stroke-linecap:square;stroke-linejoin:miter;stroke:rgb(49%, 13%, 50%);stroke-opacity:1;stroke-miterlimit:3.25;stroke-dasharray:none"
       d="M 285.714844 -88.714844 L 342.855469 -88.714844 L 342.855469 -145.855469 L 285.714844 -145.855469 Z M 285.714844 -88.714844 "
       transform="matrix(1,0,0,1,0,203)"
       id="path2028" />
    <path
       style="fill-rule:nonzero;fill:rgb(45%, 12%, 50%);fill-opacity:1;stroke-width:2.5;stroke-linecap:square;stroke-linejoin:miter;stroke:rgb(45%, 12%, 50%);stroke-opacity:1;stroke-miterlimit:3.25;stroke-dasharray:none"
       d="M 342.855469 -88.714844 L 400 -88.714844 L 400 -145.855469 L 342.855469 -145.855469 Z M 342.855469 -88.714844 "
       transform="matrix(1,0,0,1,0,203)"
       id="path2030" />
    <path
       style="fill-rule:nonzero;fill:rgb(98%, 99%, 74%);fill-opacity:1;stroke-width:2.5;stroke-linecap:square;stroke-linejoin:miter;stroke:rgb(98%, 99%, 74%);stroke-opacity:1;stroke-miterlimit:3.25;stroke-dasharray:none"
       d="M 0 -145.855469 L 57.144531 -145.855469 L 57.144531 -203 L 0 -203 Z M 0 -145.855469 "
       transform="matrix(1,0,0,1,0,203)"
       id="path2032" />
    <path
       style="fill-rule:nonzero;fill:rgb(99%, 65%, 44%);fill-opacity:1;stroke-width:2.5;stroke-linecap:square;stroke-linejoin:miter;stroke:rgb(99%, 65%, 44%);stroke-opacity:1;stroke-miterlimit:3.25;stroke-dasharray:none"
       d="M 57.144531 -145.855469 L 114.285156 -145.855469 L 114.285156 -203 L 57.144531 -203 Z M 57.144531 -145.855469 "
       transform="matrix(1,0,0,1,0,203)"
       id="path2034" />
    <path
       style="fill-rule:nonzero;fill:rgb(94%, 36%, 36%);fill-opacity:1;stroke-width:2.5;stroke-linecap:square;stroke-linejoin:miter;stroke:rgb(94%, 36%, 36%);stroke-opacity:1;stroke-miterlimit:3.25;stroke-dasharray:none"
       d="M 114.285156 -145.855469 L 171.429688 -145.855469 L 171.429688 -203 L 114.285156 -203 Z M 114.285156 -145.855469 "
       transform="matrix(1,0,0,1,0,203)"
       id="path2036" />
    <path
       style="fill-rule:nonzero;fill:rgb(70%, 21%, 47%);fill-opacity:1;stroke-width:2.5;stroke-linecap:square;stroke-linejoin:miter;stroke:rgb(70%, 21%, 47%);stroke-opacity:1;stroke-miterlimit:3.25;stroke-dasharray:none"
       d="M 171.429688 -145.855469 L 228.570312 -145.855469 L 228.570312 -203 L 171.429688 -203 Z M 171.429688 -145.855469 "
       transform="matrix(1,0,0,1,0,203)"
       id="path2038" />
    <path
       style="fill-rule:nonzero;fill:rgb(55%, 16%, 50%);fill-opacity:1;stroke-width:2.5;stroke-linecap:square;stroke-linejoin:miter;stroke:rgb(55%, 16%, 50%);stroke-opacity:1;stroke-miterlimit:3.25;stroke-dasharray:none"
       d="M 228.570312 -145.855469 L 285.714844 -145.855469 L 285.714844 -203 L 228.570312 -203 Z M 228.570312 -145.855469 "
       transform="matrix(1,0,0,1,0,203)"
       id="path2040" />
    <path
       style="fill-rule:nonzero;fill:rgb(47%, 13%, 50%);fill-opacity:1;stroke-width:2.5;stroke-linecap:square;stroke-linejoin:miter;stroke:rgb(47%, 13%, 50%);stroke-opacity:1;stroke-miterlimit:3.25;stroke-dasharray:none"
       d="M 285.714844 -145.855469 L 342.855469 -145.855469 L 342.855469 -203 L 285.714844 -203 Z M 285.714844 -145.855469 "
       transform="matrix(1,0,0,1,0,203)"
       id="path2042" />
    <path
       style="fill-rule:nonzero;fill:rgb(39%, 9%, 50%);fill-opacity:1;stroke-width:2.5;stroke-linecap:square;stroke-linejoin:miter;stroke:rgb(39%, 9%, 50%);stroke-opacity:1;stroke-miterlimit:3.25;stroke-dasharray:none"
       d="M 342.855469 -145.855469 L 400 -145.855469 L 400 -203 L 342.855469 -203 Z M 342.855469 -145.855469 "
       transform="matrix(1,0,0,1,0,203)"
       id="path2044" />
  </g>
</svg>
